<svg width="160" height="140" viewBox="0 0 160 140" fill="none" xmlns="http://www.w3.org/2000/svg">
<path d="M3.396 3.22H19.972V47.62H58.304V3.22H74.88V112H58.304V61.532H19.972V112H3.396V3.22ZM97.9264 44.068H114.502V112H97.9264V44.068ZM106.066 31.34C103.008 31.34 100.442 30.304 98.3704 28.232C96.2984 26.16 95.2624 23.5947 95.2624 20.536C95.2624 17.7733 96.2984 15.4053 98.3704 13.432C100.442 11.4587 103.008 10.472 106.066 10.472C109.026 10.472 111.542 11.4587 113.614 13.432C115.686 15.4053 116.722 17.7733 116.722 20.536C116.722 23.5947 115.686 26.16 113.614 28.232C111.641 30.304 109.125 31.34 106.066 31.34ZM133.821 136.716C137.768 128.231 140.777 120.387 142.849 113.184C138.212 111.704 135.893 108.3 135.893 102.972C135.893 99.9133 136.88 97.3973 138.853 95.424C140.925 93.352 143.49 92.316 146.549 92.316C149.706 92.316 152.222 93.5 154.097 95.868C155.972 98.1373 156.909 101.443 156.909 105.784C156.909 110.224 155.528 115.256 152.765 120.88C150.101 126.504 146.993 131.783 143.441 136.716H133.821Z" fill="#FFE1CC"/>
<path d="M3.396 3.22V0.719998H0.896001V3.22H3.396ZM19.972 3.22H22.472V0.719998H19.972V3.22ZM19.972 47.62H17.472V50.12H19.972V47.62ZM58.304 47.62V50.12H60.804V47.62H58.304ZM58.304 3.22V0.719998H55.804V3.22H58.304ZM74.88 3.22H77.38V0.719998H74.88V3.22ZM74.88 112V114.5H77.38V112H74.88ZM58.304 112H55.804V114.5H58.304V112ZM58.304 61.532H60.804V59.032H58.304V61.532ZM19.972 61.532V59.032H17.472V61.532H19.972ZM19.972 112V114.5H22.472V112H19.972ZM3.396 112H0.896001V114.5H3.396V112ZM3.396 5.72H19.972V0.719998H3.396V5.72ZM17.472 3.22V47.62H22.472V3.22H17.472ZM19.972 50.12H58.304V45.12H19.972V50.12ZM60.804 47.62V3.22H55.804V47.62H60.804ZM58.304 5.72H74.88V0.719998H58.304V5.72ZM72.38 3.22V112H77.38V3.22H72.38ZM74.88 109.5H58.304V114.5H74.88V109.5ZM60.804 112V61.532H55.804V112H60.804ZM58.304 59.032H19.972V64.032H58.304V59.032ZM17.472 61.532V112H22.472V61.532H17.472ZM19.972 109.5H3.396V114.5H19.972V109.5ZM5.896 112V3.22H0.896001V112H5.896ZM97.9264 44.068V41.568H95.4264V44.068H97.9264ZM114.502 44.068H117.002V41.568H114.502V44.068ZM114.502 112V114.5H117.002V112H114.502ZM97.9264 112H95.4264V114.5H97.9264V112ZM98.3704 28.232L100.138 26.4642L100.138 26.4642L98.3704 28.232ZM98.3704 13.432L100.095 15.2423L100.095 15.2423L98.3704 13.432ZM113.614 13.432L111.89 15.2423L111.89 15.2423L113.614 13.432ZM113.614 28.232L111.847 26.4642L111.825 26.4858L111.804 26.5079L113.614 28.232ZM97.9264 46.568H114.502V41.568H97.9264V46.568ZM112.002 44.068V112H117.002V44.068H112.002ZM114.502 109.5H97.9264V114.5H114.502V109.5ZM100.426 112V44.068H95.4264V112H100.426ZM106.066 28.84C103.638 28.84 101.719 28.045 100.138 26.4642L96.6026 29.9998C99.1659 32.563 102.377 33.84 106.066 33.84V28.84ZM100.138 26.4642C98.5574 24.8835 97.7624 22.964 97.7624 20.536H92.7624C92.7624 24.2253 94.0394 27.4365 96.6026 29.9998L100.138 26.4642ZM97.7624 20.536C97.7624 18.4845 98.498 16.7628 100.095 15.2423L96.6462 11.6217C94.0987 14.0479 92.7624 17.0621 92.7624 20.536H97.7624ZM100.095 15.2423C101.668 13.7442 103.601 12.972 106.066 12.972V7.97199C102.414 7.97199 99.2172 9.17314 96.6462 11.6217L100.095 15.2423ZM106.066 12.972C108.409 12.972 110.301 13.7284 111.89 15.2423L115.339 11.6217C112.784 9.18896 109.644 7.97199 106.066 7.97199V12.972ZM111.89 15.2423C113.487 16.7628 114.222 18.4845 114.222 20.536H119.222C119.222 17.0621 117.886 14.0479 115.339 11.6217L111.89 15.2423ZM114.222 20.536C114.222 22.964 113.427 24.8835 111.847 26.4642L115.382 29.9998C117.945 27.4365 119.222 24.2253 119.222 20.536H114.222ZM111.804 26.5079C110.338 28.0475 108.494 28.84 106.066 28.84V33.84C109.757 33.84 112.944 32.5605 115.425 29.9561L111.804 26.5079ZM133.821 136.716L131.554 135.662L129.901 139.216H133.821V136.716ZM142.849 113.184L145.252 113.875L145.923 111.541L143.609 110.802L142.849 113.184ZM138.853 95.424L140.621 97.1918L138.853 95.424ZM154.097 95.868L152.137 97.4198L152.153 97.4402L152.17 97.4602L154.097 95.868ZM152.765 120.88L150.521 119.778L150.513 119.794L150.506 119.81L152.765 120.88ZM143.441 136.716V139.216H144.722L145.47 138.177L143.441 136.716ZM136.088 137.77C140.076 129.195 143.136 121.228 145.252 113.875L140.446 112.493C138.418 119.545 135.459 127.266 131.554 135.662L136.088 137.77ZM143.609 110.802C141.722 110.2 140.489 109.274 139.698 108.114C138.894 106.933 138.393 105.28 138.393 102.972H133.393C133.393 105.992 134.051 108.705 135.566 110.928C137.094 113.172 139.339 114.688 142.089 115.566L143.609 110.802ZM138.393 102.972C138.393 100.506 139.164 98.649 140.621 97.1918L137.085 93.6562C134.596 96.1457 133.393 99.3203 133.393 102.972H138.393ZM140.621 97.1918C142.202 95.611 144.121 94.816 146.549 94.816V89.816C142.86 89.816 139.648 91.093 137.085 93.6562L140.621 97.1918ZM146.549 94.816C148.983 94.816 150.761 95.6815 152.137 97.4198L156.057 94.3162C153.684 91.3185 150.43 89.816 146.549 89.816V94.816ZM152.17 97.4602C153.534 99.1115 154.409 101.757 154.409 105.784H159.409C159.409 101.129 158.41 97.1632 156.024 94.2758L152.17 97.4602ZM154.409 105.784C154.409 109.718 153.18 114.365 150.521 119.778L155.009 121.982C157.875 116.147 159.409 110.73 159.409 105.784H154.409ZM150.506 119.81C147.905 125.3 144.874 130.448 141.412 135.255L145.47 138.177C149.112 133.118 152.297 127.708 155.024 121.95L150.506 119.81ZM143.441 134.216H133.821V139.216H143.441V134.216Z" fill="#5C6962"/>
</svg>
